HIERARCHY
ROOT SpineBase
{
  OFFSET 0.000000 0.000000 0.000000
  CHANNELS 6 Xposition Yposition Zposition Zrotation Xrotation Yrotation
  JOINT SpineMid
  {
    OFFSET 0.000000 26.464760 0.000000
    CHANNELS 3 Zrotation Xrotation Yrotation
    JOINT SpineShoulder
    {
      OFFSET -0.038827 19.720758 -0.563730
      CHANNELS 3 Zrotation Xrotation Yrotation
      JOINT Neck
      {
        OFFSET -0.015577 6.559381 -0.458283
        CHANNELS 3 Zrotation Xrotation Yrotation
        JOINT Head
        {
          OFFSET 1.384223 12.358814 0.029836
          CHANNELS 3 Zrotation Xrotation Yrotation
          End Site
          {
            OFFSET 0 0 0
          }
        }
      }
      JOINT ShoulderLeft
      {
        OFFSET -12.719015 -2.543317 -4.389728
        CHANNELS 3 Zrotation Xrotation Yrotation
        JOINT ElbowLeft
        {
          OFFSET -6.333756 -23.399841 -1.981751
          CHANNELS 3 Zrotation Xrotation Yrotation
          JOINT WristLeft
          {
            OFFSET -0.910262 -16.014537 -11.870486
            CHANNELS 3 Zrotation Xrotation Yrotation
            JOINT HandLeft
            {
              OFFSET -1.135070 -5.908013 -5.215747
              CHANNELS 3 Zrotation Xrotation Yrotation
              JOINT HandTipLeft
              {
                OFFSET -0.064647 -4.945349 -3.894605
                CHANNELS 3 Zrotation Xrotation Yrotation
                End Site
                {
                  OFFSET 0 0 0
                }
              }
              JOINT ThumbLeft
              {
                OFFSET -1.888920 -2.914472 -2.774855
                CHANNELS 3 Zrotation Xrotation Yrotation
                End Site
                {
                  OFFSET 0 0 0
                }
              }
            }
          }
        }
      }
      JOINT ShoulderRight
      {
        OFFSET 12.597007 -0.999850 2.266592
        CHANNELS 3 Zrotation Xrotation Yrotation
        JOINT ElbowRight
        {
          OFFSET 4.545050 -23.556879 5.722964
          CHANNELS 3 Zrotation Xrotation Yrotation
          JOINT WristRight
          {
            OFFSET 8.605109 -18.247979 -4.466774
            CHANNELS 3 Zrotation Xrotation Yrotation
            JOINT HandRight
            {
              OFFSET 4.124741 -6.691338 -4.781607
              CHANNELS 3 Zrotation Xrotation Yrotation
              JOINT HandTipRight
              {
                OFFSET 2.132026 -5.777364 -1.538175
                CHANNELS 3 Zrotation Xrotation Yrotation
                End Site
                {
                  OFFSET 0 0 0
                }
              }
              JOINT ThumbRight
              {
                OFFSET 0.545982 -3.870459 -1.550549
                CHANNELS 3 Zrotation Xrotation Yrotation
                End Site
                {
                  OFFSET 0 0 0
                }
              }
            }
          }
        }
      }
    }
  }
  JOINT HipLeft
  {
    OFFSET -5.773718 0.940168 -4.029874
    CHANNELS 3 Zrotation Xrotation Yrotation
    JOINT KneeLeft
    {
      OFFSET -3.443123 -30.933591 -1.203241
      CHANNELS 3 Zrotation Xrotation Yrotation
      JOINT AnkleLeft
      {
        OFFSET 1.907191 -33.208560 8.393013
        CHANNELS 3 Zrotation Xrotation Yrotation
        JOINT FootLeft
        {
          OFFSET 3.845075 -5.166689 -2.572409
          CHANNELS 3 Zrotation Xrotation Yrotation
          End Site
          {
            OFFSET 0 0 0
          }
        }
      }
    }
  }
  JOINT HipRight
  {
    OFFSET 5.503972 0.739836 -2.006751
    CHANNELS 3 Zrotation Xrotation Yrotation
    JOINT KneeRight
    {
      OFFSET -0.421607 -26.996666 0.935416
      CHANNELS 3 Zrotation Xrotation Yrotation
      JOINT AnkleRight
      {
        OFFSET -4.044985 -38.157503 6.861623
        CHANNELS 3 Zrotation Xrotation Yrotation
        JOINT FootRight
        {
          OFFSET -5.019671 -6.671958 -3.274651
          CHANNELS 3 Zrotation Xrotation Yrotation
          End Site
          {
            OFFSET 0 0 0
          }
        }
      }
    }
  }
}
MOTION
Frames: 7
Frame Time: 0.033333
16.317841 72.510658 360.349614 5.314149 3.703820 -15.096985 -0.060015 -0.338751 15.089117 -0.030816 -0.197879 0.220606 -3.562729 10.452283 -2.150561 0.000000 0.000000 0.000000 -130.730388 54.693587 63.413897 13.840608 16.062856 56.879601 -12.345907 4.164725 -10.785295 0.654903 7.628411 13.915286 0.000000 0.000000 0.000000 0.000000 0.000000 0.000000 94.265454 -9.699096 36.028954 28.187079 -5.367760 -62.214378 -5.901173 -0.931947 -33.966446 25.760217 -3.770517 46.412065 0.000000 0.000000 0.000000 0.000000 0.000000 0.000000 0.511485 6.102278 13.344705 -21.394261 -13.183333 -5.811858 17.287179 7.185768 2.761125 0.000000 0.000000 0.000000 -2.703137 2.495415 14.784848 -6.967885 -15.610798 -0.607912 35.307559 37.023855 -51.206887 0.000000 0.000000 0.000000
16.493591 71.898405 360.456601 4.940646 3.314877 -16.357561 -0.285355 -0.256383 16.348637 -0.113385 -0.176551 0.186814 -1.373118 10.844620 -2.219965 0.000000 0.000000 0.000000 -128.519796 55.162210 62.707512 10.619360 12.331314 55.277761 -11.025241 1.864571 -10.091139 3.368402 3.664117 13.068959 0.000000 0.000000 0.000000 0.000000 0.000000 0.000000 94.021611 -7.766216 34.135483 21.591127 -8.648179 -55.958241 -5.200852 7.061016 -38.108485 25.795196 -6.755499 48.042374 0.000000 0.000000 0.000000 0.000000 0.000000 0.000000 0.468029 7.212347 14.537556 -21.775172 -14.045025 -6.140724 14.936984 -1.106542 -1.681495 0.000000 0.000000 0.000000 -2.661652 3.973293 16.065629 -7.854486 -17.058974 -0.952557 29.963301 39.607055 -46.056990 0.000000 0.000000 0.000000
16.504998 72.519656 360.567679 4.391955 3.187525 -17.179224 -0.168288 -0.239699 17.181963 -0.032102 -0.172811 0.176072 -0.245518 10.847554 -2.228228 0.000000 0.000000 0.000000 -129.213149 56.250636 64.806766 8.685027 14.519400 55.526041 -13.322780 0.983272 -11.512432 6.756541 5.264670 14.529995 0.000000 0.000000 0.000000 0.000000 0.000000 0.000000 95.061357 -5.542797 32.867984 21.199721 -7.650899 -55.572240 -3.859676 9.675274 -38.934397 24.836971 -8.006862 47.450612 0.000000 0.000000 0.000000 0.000000 0.000000 0.000000 0.283078 7.496544 15.414279 -20.890453 -13.990517 -5.947917 9.132774 -10.664544 -6.525184 0.000000 0.000000 0.000000 -1.963119 4.384303 16.939683 -8.408087 -17.043066 -1.089933 34.163166 36.502273 -48.330397 0.000000 0.000000 0.000000
16.473536 74.252034 360.683644 4.154300 3.153847 -16.866761 0.169966 -0.275529 16.893171 0.101673 -0.150765 0.191454 -1.599177 9.547347 -1.963057 0.000000 0.000000 0.000000 -131.491394 56.377187 66.940036 9.003390 26.388002 59.738435 -20.997774 -1.695606 -16.562217 19.719323 16.906796 19.758888 0.000000 0.000000 0.000000 0.000000 0.000000 0.000000 96.424199 -4.367588 32.622050 28.662811 0.089125 -63.274889 -1.699212 14.946864 -38.681171 27.662154 -7.175363 45.813383 0.000000 0.000000 0.000000 0.000000 0.000000 0.000000 -0.518435 7.118268 15.218177 -18.926354 -13.317339 -5.400933 7.817624 -6.256782 -2.018578 0.000000 0.000000 0.000000 -1.249295 3.704246 16.676316 -8.268790 -15.656711 -0.928179 42.181530 24.956857 -49.443559 0.000000 0.000000 0.000000
16.390218 76.096113 360.627196 4.170894 3.063266 -15.901142 0.492764 -0.268160 15.951766 0.235182 -0.131801 0.217408 -5.028990 8.631572 -1.687233 0.000000 0.000000 0.000000 -132.544158 54.935658 66.226883 13.032361 42.757067 65.479884 -9.477654 3.851444 -16.043742 34.004660 16.520121 27.606464 0.000000 0.000000 0.000000 0.000000 0.000000 0.000000 97.879123 -3.411160 32.628602 43.917809 10.069327 -79.169639 -7.452495 21.330219 -34.793671 17.222692 6.226682 19.966092 0.000000 0.000000 0.000000 0.000000 0.000000 0.000000 -1.633335 5.791275 14.475711 -16.111584 -11.937685 -4.546785 0.414237 -13.693789 -5.809501 0.000000 0.000000 0.000000 -1.273140 2.549449 15.736022 -6.818347 -13.980768 -0.459556 39.327723 14.105886 -37.418467 0.000000 0.000000 0.000000
16.384256 77.986897 360.585138 4.442023 2.833009 -14.746091 0.676676 -0.299576 14.818470 0.298397 -0.154462 0.242553 -7.862204 8.880423 -1.561726 0.000000 0.000000 0.000000 -134.458834 52.915450 65.861941 20.241517 55.036869 68.242052 8.608353 3.577790 -12.257868 29.916993 9.340124 30.974881 0.000000 0.000000 0.000000 0.000000 0.000000 0.000000 97.512171 -2.037784 31.310243 55.998841 15.598887 -91.045516 -16.154826 25.083834 -31.607233 -0.840994 22.395251 -11.360896 0.000000 0.000000 0.000000 0.000000 0.000000 0.000000 -3.199885 5.420111 13.413648 -13.209356 -10.662364 -3.688218 -1.831414 -18.730638 -10.133591 0.000000 0.000000 0.000000 -1.850879 1.464309 14.582395 -4.891138 -11.955593 0.010433 46.055111 6.073920 -38.765422 0.000000 0.000000 0.000000
16.488355 79.279653 360.607106 4.744273 2.755298 -13.954886 0.774226 -0.285770 14.038075 0.348087 -0.129163 0.263024 -10.135281 7.637191 -1.383192 0.000000 0.000000 0.000000 -136.849789 52.011682 66.805337 21.835950 56.560759 69.459912 22.320276 0.009002 -5.375848 22.781555 4.576831 29.065890 0.000000 0.000000 0.000000 0.000000 0.000000 0.000000 97.868594 0.127463 29.954598 61.937271 18.354432 -97.797326 -20.889010 22.913604 -29.472144 -1.780665 20.577853 -14.987876 0.000000 0.000000 0.000000 0.000000 0.000000 0.000000 -4.136041 5.213325 12.653923 -11.941334 -9.594203 -3.294856 2.598323 -10.669465 -3.391094 0.000000 0.000000 0.000000 -2.470636 0.942071 13.768643 -3.180462 -11.148871 0.418561 53.270401 3.066179 -47.104074 0.000000 0.000000 0.000000
